<svg xmlns="http://www.w3.org/2000/svg" role="img" aria-labelledby="title description" viewBox="0 0 1480 1090" width="1480" height="1090" font-family="Arial, sans-serif"><title id="title">DFD — context (Level 0)</title><desc id="description">The complete application is one process. Actors and external services exchange named data with it; MongoDB is internal and is omitted at this level.</desc><defs><marker id="arrow" markerWidth="9" markerHeight="7" refX="8" refY="3.5" orient="auto"><path d="M0 0 L9 3.5 L0 7 Z" fill="#64748b"/></marker></defs><rect width="100%" height="100%" fill="white"/><text x="35" y="42" font-size="25" font-weight="700" fill="#0f172a">DFD — context (Level 0)</text><text x="35" y="70" font-size="13" fill="#475569">CALIDRO RACS · Repository audit: 09 October 2026 · Arrows name data or communication flows</text><g><path d="M 320 179 C 455 179, 455 479, 590 479" fill="none" stroke="#64748b" stroke-width="1.5" marker-end="url(#arrow)"/><text x="455" y="322" text-anchor="middle" font-size="12" fill="#334155" stroke="white" stroke-width="5" paint-order="stroke"><tspan x="455" dy="0">Account, booking, order, proof,</tspan><tspan x="455" dy="15">claim</tspan></text></g><g><path d="M 590 511 C 455 511, 455 211, 320 211" fill="none" stroke="#64748b" stroke-width="1.5" marker-end="url(#arrow)"/><text x="455" y="354" text-anchor="middle" font-size="12" fill="#334155" stroke="white" stroke-width="5" paint-order="stroke"><tspan x="455" dy="0">Catalog, quote, receipt, status,</tspan><tspan x="455" dy="15">answer</tspan></text></g><g><path d="M 320 369 C 455 369, 455 479, 590 479" fill="none" stroke="#64748b" stroke-width="1.5" marker-end="url(#arrow)"/><text x="455" y="417" text-anchor="middle" font-size="12" fill="#334155" stroke="white" stroke-width="5" paint-order="stroke"><tspan x="455" dy="0">Approval, pricing, role, settings</tspan></text></g><g><path d="M 590 511 C 455 511, 455 401, 320 401" fill="none" stroke="#64748b" stroke-width="1.5" marker-end="url(#arrow)"/><text x="455" y="449" text-anchor="middle" font-size="12" fill="#334155" stroke="white" stroke-width="5" paint-order="stroke"><tspan x="455" dy="0">Queues, reports, audit, alerts</tspan></text></g><g><path d="M 320 559 C 455 559, 455 479, 590 479" fill="none" stroke="#64748b" stroke-width="1.5" marker-end="url(#arrow)"/><text x="455" y="512" text-anchor="middle" font-size="12" fill="#334155" stroke="white" stroke-width="5" paint-order="stroke"><tspan x="455" dy="0">Dispatch, POS, payment review</tspan></text></g><g><path d="M 590 511 C 455 511, 455 591, 320 591" fill="none" stroke="#64748b" stroke-width="1.5" marker-end="url(#arrow)"/><text x="455" y="544" text-anchor="middle" font-size="12" fill="#334155" stroke="white" stroke-width="5" paint-order="stroke"><tspan x="455" dy="0">Work queues, schedules, reports</tspan></text></g><g><path d="M 320 749 C 455 749, 455 479, 590 479" fill="none" stroke="#64748b" stroke-width="1.5" marker-end="url(#arrow)"/><text x="455" y="607" text-anchor="middle" font-size="12" fill="#334155" stroke="white" stroke-width="5" paint-order="stroke"><tspan x="455" dy="0">Job response, GPS, evidence,</tspan><tspan x="455" dy="15">attendance</tspan></text></g><g><path d="M 590 511 C 455 511, 455 781, 320 781" fill="none" stroke="#64748b" stroke-width="1.5" marker-end="url(#arrow)"/><text x="455" y="639" text-anchor="middle" font-size="12" fill="#334155" stroke="white" stroke-width="5" paint-order="stroke"><tspan x="455" dy="0">Assignments, kit, payslip, alerts</tspan></text></g><g><path d="M 890 479 C 1025 479, 1025 179, 1160 179" fill="none" stroke="#64748b" stroke-width="1.5" marker-end="url(#arrow)"/><text x="1025" y="322" text-anchor="middle" font-size="12" fill="#334155" stroke="white" stroke-width="5" paint-order="stroke"><tspan x="1025" dy="0">OAuth / challenge verification</tspan></text></g><g><path d="M 1160 211 C 1025 211, 1025 511, 890 511" fill="none" stroke="#64748b" stroke-width="1.5" marker-end="url(#arrow)"/><text x="1025" y="354" text-anchor="middle" font-size="12" fill="#334155" stroke="white" stroke-width="5" paint-order="stroke"><tspan x="1025" dy="0">Identity / challenge result</tspan></text></g><g><path d="M 1160 355 C 1025 355, 1025 495, 890 495" fill="none" stroke="#64748b" stroke-width="1.5" marker-end="url(#arrow)"/><text x="1025" y="418" text-anchor="middle" font-size="12" fill="#334155" stroke="white" stroke-width="5" paint-order="stroke"><tspan x="1025" dy="0">Signed payment events</tspan></text></g><g><path d="M 890 470 C 1025 470, 1025 330, 1160 330" fill="none" stroke="#64748b" stroke-width="1.5" marker-end="url(#arrow)"/><text x="1025" y="393" text-anchor="middle" font-size="12" fill="#334155" stroke="white" stroke-width="5" paint-order="stroke"><tspan x="1025" dy="0">Source charge request, if used</tspan></text></g><g><path d="M 890 495 C 1025 495, 1025 515, 1160 515" fill="none" stroke="#64748b" stroke-width="1.5" marker-end="url(#arrow)"/><text x="1025" y="498" text-anchor="middle" font-size="12" fill="#334155" stroke="white" stroke-width="5" paint-order="stroke"><tspan x="1025" dy="0">Transactional message</tspan></text></g><g><path d="M 1160 540 C 1025 540, 1025 520, 890 520" fill="none" stroke="#64748b" stroke-width="1.5" marker-end="url(#arrow)"/><text x="1025" y="523" text-anchor="middle" font-size="12" fill="#334155" stroke="white" stroke-width="5" paint-order="stroke"><tspan x="1025" dy="0">Delivery response</tspan></text></g><g><path d="M 890 479 C 1025 479, 1025 684, 1160 684" fill="none" stroke="#64748b" stroke-width="1.5" marker-end="url(#arrow)"/><text x="1025" y="574.5" text-anchor="middle" font-size="12" fill="#334155" stroke="white" stroke-width="5" paint-order="stroke"><tspan x="1025" dy="0">Address, coordinates, event,</tspan><tspan x="1025" dy="15">holiday query</tspan></text></g><g><path d="M 1160 716 C 1025 716, 1025 511, 890 511" fill="none" stroke="#64748b" stroke-width="1.5" marker-end="url(#arrow)"/><text x="1025" y="606.5" text-anchor="middle" font-size="12" fill="#334155" stroke="white" stroke-width="5" paint-order="stroke"><tspan x="1025" dy="0">Location, route, event ID, holiday</tspan><tspan x="1025" dy="15">data</tspan></text></g><g><path d="M 890 479 C 1025 479, 1025 819, 1160 819" fill="none" stroke="#64748b" stroke-width="1.5" marker-end="url(#arrow)"/><text x="1025" y="642" text-anchor="middle" font-size="12" fill="#334155" stroke="white" stroke-width="5" paint-order="stroke"><tspan x="1025" dy="0">Question / conversation / search</tspan><tspan x="1025" dy="15">terms</tspan></text></g><g><path d="M 1160 851 C 1025 851, 1025 511, 890 511" fill="none" stroke="#64748b" stroke-width="1.5" marker-end="url(#arrow)"/><text x="1025" y="674" text-anchor="middle" font-size="12" fill="#334155" stroke="white" stroke-width="5" paint-order="stroke"><tspan x="1025" dy="0">Answer / search evidence</tspan></text></g><g><path d="M 890 479 C 1025 479, 1025 979, 1160 979" fill="none" stroke="#64748b" stroke-width="1.5" marker-end="url(#arrow)"/><text x="1025" y="722" text-anchor="middle" font-size="12" fill="#334155" stroke="white" stroke-width="5" paint-order="stroke"><tspan x="1025" dy="0">Product image / deletion request</tspan></text></g><g><path d="M 1160 1011 C 1025 1011, 1025 511, 890 511" fill="none" stroke="#64748b" stroke-width="1.5" marker-end="url(#arrow)"/><text x="1025" y="754" text-anchor="middle" font-size="12" fill="#334155" stroke="white" stroke-width="5" paint-order="stroke"><tspan x="1025" dy="0">Image URL / upload result</tspan></text></g><g><title>Customer / visitor</title><rect x="40" y="150" width="280" height="90" rx="0" fill="#fff7ed" stroke="#c2410c" stroke-width="2"/><text x="180" y="200" text-anchor="middle" fill="#0f172a" font-size="15" font-weight="600"><tspan x="180" dy="0">Customer / visitor</tspan></text></g><g><title>Administrator</title><rect x="40" y="340" width="280" height="90" rx="0" fill="#fff7ed" stroke="#c2410c" stroke-width="2"/><text x="180" y="390" text-anchor="middle" fill="#0f172a" font-size="15" font-weight="600"><tspan x="180" dy="0">Administrator</tspan></text></g><g><title>Secretary / dispatcher</title><rect x="40" y="530" width="280" height="90" rx="0" fill="#fff7ed" stroke="#c2410c" stroke-width="2"/><text x="180" y="580" text-anchor="middle" fill="#0f172a" font-size="15" font-weight="600"><tspan x="180" dy="0">Secretary / dispatcher</tspan></text></g><g><title>Technician</title><rect x="40" y="720" width="280" height="90" rx="0" fill="#fff7ed" stroke="#c2410c" stroke-width="2"/><text x="180" y="770" text-anchor="middle" fill="#0f172a" font-size="15" font-weight="600"><tspan x="180" dy="0">Technician</tspan></text></g><g><title>0. CALIDRO RACS
Web management system</title><rect x="590" y="430" width="300" height="130" rx="28" fill="#eff6ff" stroke="#1d4ed8" stroke-width="2"/><text x="740" y="490" text-anchor="middle" fill="#0f172a" font-size="15" font-weight="600"><tspan x="740" dy="0">0. CALIDRO RACS</tspan><tspan x="740" dy="20">Web management system</tspan></text></g><g><title>Google identity / reCAPTCHA</title><rect x="1160" y="150" width="280" height="90" rx="0" fill="#fff7ed" stroke="#c2410c" stroke-width="2"/><text x="1300" y="200" text-anchor="middle" fill="#0f172a" font-size="15" font-weight="600"><tspan x="1300" dy="0">Google identity / reCAPTCHA</tspan></text></g><g><title>PayMongo
Retained gateway / webhook</title><rect x="1160" y="310" width="280" height="90" rx="0" fill="#fff7ed" stroke="#c2410c" stroke-width="2"/><text x="1300" y="350" text-anchor="middle" fill="#0f172a" font-size="15" font-weight="600"><tspan x="1300" dy="0">PayMongo</tspan><tspan x="1300" dy="20">Retained gateway / webhook</tspan></text></g><g><title>Brevo API / SMTP</title><rect x="1160" y="470" width="280" height="90" rx="0" fill="#fff7ed" stroke="#c2410c" stroke-width="2"/><text x="1300" y="520" text-anchor="middle" fill="#0f172a" font-size="15" font-weight="600"><tspan x="1300" dy="0">Brevo API / SMTP</tspan></text></g><g><title>Location / calendar providers
PSGC, Geoapify, Nominatim
OSRM, Esri, Google, Nager</title><rect x="1160" y="640" width="280" height="120" rx="0" fill="#fff7ed" stroke="#c2410c" stroke-width="2"/><text x="1300" y="685" text-anchor="middle" fill="#0f172a" font-size="15" font-weight="600"><tspan x="1300" dy="0">Location / calendar providers</tspan><tspan x="1300" dy="20">PSGC, Geoapify, Nominatim</tspan><tspan x="1300" dy="20">OSRM, Esri, Google, Nager</tspan></text></g><g><title>Gemini / Groq / OpenRouter
Tavily search</title><rect x="1160" y="790" width="280" height="90" rx="0" fill="#fff7ed" stroke="#c2410c" stroke-width="2"/><text x="1300" y="830" text-anchor="middle" fill="#0f172a" font-size="15" font-weight="600"><tspan x="1300" dy="0">Gemini / Groq / OpenRouter</tspan><tspan x="1300" dy="20">Tavily search</tspan></text></g><g><title>Cloudinary product images</title><rect x="1160" y="950" width="280" height="90" rx="0" fill="#fff7ed" stroke="#c2410c" stroke-width="2"/><text x="1300" y="1000" text-anchor="middle" fill="#0f172a" font-size="15" font-weight="600"><tspan x="1300" dy="0">Cloudinary product images</tspan></text></g></svg>