<svg xmlns="http://www.w3.org/2000/svg" role="img" aria-labelledby="title description" viewBox="0 0 1540 1220" width="1540" height="1220" font-family="Arial, sans-serif"><title id="title">System architecture — deployed containers and components</title><desc id="description">Observed deployment: one Node web service plus MongoDB and external providers. Timers, caches, web sockets and domain modules are components of that service, rather than independently deployed services.</desc><defs><marker id="arrow" markerWidth="9" markerHeight="7" refX="8" refY="3.5" orient="auto"><path d="M0 0 L9 3.5 L0 7 Z" fill="#64748b"/></marker></defs><rect width="100%" height="100%" fill="white"/><text x="35" y="42" font-size="25" font-weight="700" fill="#0f172a">System architecture — deployed containers and components</text><text x="35" y="70" font-size="13" fill="#475569">CALIDRO RACS · Repository audit: 09 October 2026 · Arrows name data or communication flows</text><g><path d="M 340 215 C 460 215, 460 215, 580 215" fill="none" stroke="#64748b" stroke-width="1.5" marker-end="url(#arrow)"/><text x="460" y="208" text-anchor="middle" font-size="12" fill="#334155" stroke="white" stroke-width="5" paint-order="stroke"><tspan x="460" dy="0">HTTPS</tspan></text></g><g><path d="M 760 260 C 760 325, 760 325, 760 390" fill="none" stroke="#64748b" stroke-width="1.5" marker-end="url(#arrow)"/><text x="850" y="318" text-anchor="middle" font-size="12" fill="#334155" stroke="white" stroke-width="5" paint-order="stroke"><tspan x="850" dy="0">HTTP / socket forwarding</tspan></text></g><g><path d="M 760 500 C 760 560, 760 560, 760 620" fill="none" stroke="#64748b" stroke-width="1.5" marker-end="url(#arrow)"/><text x="850" y="553" text-anchor="middle" font-size="12" fill="#334155" stroke="white" stroke-width="5" paint-order="stroke"><tspan x="850" dy="0">Authorized request</tspan></text></g><g><path d="M 940 680 C 1065 680, 1065 455, 1190 455" fill="none" stroke="#64748b" stroke-width="1.5" marker-end="url(#arrow)"/><text x="1065" y="560.5" text-anchor="middle" font-size="12" fill="#334155" stroke="white" stroke-width="5" paint-order="stroke"><tspan x="1065" dy="0">Models / sessions / proof bytes</tspan></text></g><g><path d="M 940 465 C 1065 465, 1065 475, 1190 475" fill="none" stroke="#64748b" stroke-width="1.5" marker-end="url(#arrow)"/><text x="1065" y="463" text-anchor="middle" font-size="12" fill="#334155" stroke="white" stroke-width="5" paint-order="stroke"><tspan x="1065" dy="0">Shared Mongo client</tspan></text></g><g><path d="M 940 680 C 1065 680, 1065 665, 1190 665" fill="none" stroke="#64748b" stroke-width="1.5" marker-end="url(#arrow)"/><text x="1065" y="665.5" text-anchor="middle" font-size="12" fill="#334155" stroke="white" stroke-width="5" paint-order="stroke"><tspan x="1065" dy="0">Product image upload / delete</tspan></text></g><g><path d="M 940 680 C 1065 680, 1065 935, 1190 935" fill="none" stroke="#64748b" stroke-width="1.5" marker-end="url(#arrow)"/><text x="1065" y="800.5" text-anchor="middle" font-size="12" fill="#334155" stroke="white" stroke-width="5" paint-order="stroke"><tspan x="1065" dy="0">Provider requests / responses</tspan></text></g><g><path d="M 760 500 C 760 680, 760 680, 760 860" fill="none" stroke="#64748b" stroke-width="1.5" marker-end="url(#arrow)"/><text x="850" y="673" text-anchor="middle" font-size="12" fill="#334155" stroke="white" stroke-width="5" paint-order="stroke"><tspan x="850" dy="0">Startup after database ready</tspan></text></g><g><path d="M 940 945 C 1065 945, 1065 475, 1190 475" fill="none" stroke="#64748b" stroke-width="1.5" marker-end="url(#arrow)"/><text x="1065" y="703" text-anchor="middle" font-size="12" fill="#334155" stroke="white" stroke-width="5" paint-order="stroke"><tspan x="1065" dy="0">Polling, claims, state changes</tspan></text></g><g><path d="M 940 925 C 1065 925, 1065 935, 1190 935" fill="none" stroke="#64748b" stroke-width="1.5" marker-end="url(#arrow)"/><text x="1065" y="923" text-anchor="middle" font-size="12" fill="#334155" stroke="white" stroke-width="5" paint-order="stroke"><tspan x="1065" dy="0">Email / notification delivery</tspan></text></g><g><path d="M 732 500 C 704 795, 704 795, 732 1090" fill="none" stroke="#64748b" stroke-width="1.5" marker-end="url(#arrow)"/><text x="822" y="788" text-anchor="middle" font-size="12" fill="#334155" stroke="white" stroke-width="5" paint-order="stroke"><tspan x="822" dy="0">Bounded state / file access</tspan></text></g><g><path d="M 1190 1110 C 1065 1110, 1065 420, 940 420" fill="none" stroke="#64748b" stroke-width="1.5" marker-end="url(#arrow)"/><text x="1065" y="758" text-anchor="middle" font-size="12" fill="#334155" stroke="white" stroke-width="5" paint-order="stroke"><tspan x="1065" dy="0">Raw signed payment event</tspan></text></g><g><path d="M 940 705 C 1065 705, 1065 1160, 1190 1160" fill="none" stroke="#64748b" stroke-width="1.5" marker-end="url(#arrow)"/><text x="1065" y="925.5" text-anchor="middle" font-size="12" fill="#334155" stroke="white" stroke-width="5" paint-order="stroke"><tspan x="1065" dy="0">Optional retained source charge</tspan></text></g><g><path d="M 580 680 C 460 680, 460 670, 340 670" fill="none" stroke="#64748b" stroke-width="1.5" marker-end="url(#arrow)"/><text x="460" y="668" text-anchor="middle" font-size="12" fill="#334155" stroke="white" stroke-width="5" paint-order="stroke"><tspan x="460" dy="0">Room events / chat tokens</tspan></text></g><g><path d="M 190 620 C 190 440, 190 440, 190 260" fill="none" stroke="#64748b" stroke-width="1.5" marker-end="url(#arrow)"/><text x="280" y="433" text-anchor="middle" font-size="12" fill="#334155" stroke="white" stroke-width="5" paint-order="stroke"><tspan x="280" dy="0">Live browser updates</tspan></text></g><g><path d="M 580 680 C 460 680, 460 910, 340 910" fill="none" stroke="#64748b" stroke-width="1.5" marker-end="url(#arrow)"/><text x="460" y="788" text-anchor="middle" font-size="12" fill="#334155" stroke="white" stroke-width="5" paint-order="stroke"><tspan x="460" dy="0">Reports from operational records</tspan></text></g><g><title>Four browser personas</title><rect x="40" y="170" width="300" height="90" rx="0" fill="#fff7ed" stroke="#c2410c" stroke-width="2"/><text x="190" y="220" text-anchor="middle" fill="#0f172a" font-size="15" font-weight="600"><tspan x="190" dy="0">Four browser personas</tspan></text></g><g><title>HTTPS hosting proxy
render.yaml / readiness probe</title><rect x="580" y="170" width="360" height="90" rx="10" fill="#f5f3ff" stroke="#6d28d9" stroke-width="2"/><text x="760" y="210" text-anchor="middle" fill="#0f172a" font-size="15" font-weight="600"><tspan x="760" dy="0">HTTPS hosting proxy</tspan><tspan x="760" dy="20">render.yaml / readiness probe</tspan></text></g><g><title>Node.js / Express 5 web process
EJS, middleware, domain routes</title><rect x="580" y="390" width="360" height="110" rx="10" fill="#f5f3ff" stroke="#6d28d9" stroke-width="2"/><text x="760" y="440" text-anchor="middle" fill="#0f172a" font-size="15" font-weight="600"><tspan x="760" dy="0">Node.js / Express 5 web process</tspan><tspan x="760" dy="20">EJS, middleware, domain routes</tspan></text></g><g><title>Business components
Bookings, sales, stock, projects
Finance, staff, aftercare, reporting</title><rect x="580" y="620" width="360" height="120" rx="10" fill="#f5f3ff" stroke="#6d28d9" stroke-width="2"/><text x="760" y="665" text-anchor="middle" fill="#0f172a" font-size="15" font-weight="600"><tspan x="760" dy="0">Business components</tspan><tspan x="760" dy="20">Bookings, sales, stock, projects</tspan><tspan x="760" dy="20">Finance, staff, aftercare, reporting</tspan></text></g><g><title>In-process background workers
Email outbox, overdue, maintenance
Equipment return, delay, reminders</title><rect x="580" y="860" width="360" height="130" rx="10" fill="#f5f3ff" stroke="#6d28d9" stroke-width="2"/><text x="760" y="910" text-anchor="middle" fill="#0f172a" font-size="15" font-weight="600"><tspan x="760" dy="0">In-process background workers</tspan><tspan x="760" dy="20">Email outbox, overdue, maintenance</tspan><tspan x="760" dy="20">Equipment return, delay, reminders</tspan></text></g><g><title>Process memory / local filesystem
Rate budgets, caches, chat sessions
Temporary + legacy uploads / logs</title><rect x="580" y="1090" width="360" height="120" rx="10" fill="#ecfdf5" stroke="#047857" stroke-width="2"/><path d="M 592 1090 V 1210" stroke="#047857" stroke-width="2"/><text x="760" y="1135" text-anchor="middle" fill="#0f172a" font-size="15" font-weight="600"><tspan x="760" dy="0">Process memory / local filesystem</tspan><tspan x="760" dy="20">Rate budgets, caches, chat sessions</tspan><tspan x="760" dy="20">Temporary + legacy uploads / logs</tspan></text></g><g><title>MongoDB shared database
63 model collections + sessions
GridFS payment / completion buckets</title><rect x="1190" y="390" width="310" height="130" rx="10" fill="#ecfdf5" stroke="#047857" stroke-width="2"/><path d="M 1202 390 V 520" stroke="#047857" stroke-width="2"/><text x="1345" y="440" text-anchor="middle" fill="#0f172a" font-size="15" font-weight="600"><tspan x="1345" dy="0">MongoDB shared database</tspan><tspan x="1345" dy="20">63 model collections + sessions</tspan><tspan x="1345" dy="20">GridFS payment / completion buckets</tspan></text></g><g><title>Cloudinary
Public product image storage</title><rect x="1190" y="620" width="310" height="90" rx="0" fill="#fff7ed" stroke="#c2410c" stroke-width="2"/><text x="1345" y="660" text-anchor="middle" fill="#0f172a" font-size="15" font-weight="600"><tspan x="1345" dy="0">Cloudinary</tspan><tspan x="1345" dy="20">Public product image storage</tspan></text></g><g><title>External adapters
Google OAuth / reCAPTCHA / Calendar
Brevo / SMTP, maps / holidays
Gemini / Groq / OpenRouter / Tavily</title><rect x="1190" y="860" width="310" height="150" rx="0" fill="#fff7ed" stroke="#c2410c" stroke-width="2"/><text x="1345" y="910" text-anchor="middle" fill="#0f172a" font-size="15" font-weight="600"><tspan x="1345" dy="0">External adapters</tspan><tspan x="1345" dy="20">Google OAuth / reCAPTCHA / Calendar</tspan><tspan x="1345" dy="20">Brevo / SMTP, maps / holidays</tspan><tspan x="1345" dy="20">Gemini / Groq / OpenRouter / Tavily</tspan></text></g><g><title>PayMongo
Retained gateway processing</title><rect x="1190" y="1090" width="310" height="90" rx="0" fill="#fff7ed" stroke="#c2410c" stroke-width="2"/><text x="1345" y="1130" text-anchor="middle" fill="#0f172a" font-size="15" font-weight="600"><tspan x="1345" dy="0">PayMongo</tspan><tspan x="1345" dy="20">Retained gateway processing</tspan></text></g><g><title>Socket.IO + chat SSE
Same HTTP server</title><rect x="40" y="620" width="300" height="100" rx="10" fill="#f5f3ff" stroke="#6d28d9" stroke-width="2"/><text x="190" y="665" text-anchor="middle" fill="#0f172a" font-size="15" font-weight="600"><tspan x="190" dy="0">Socket.IO + chat SSE</tspan><tspan x="190" dy="20">Same HTTP server</tspan></text></g><g><title>Admin / secretary reports
Revenue and decision analytics</title><rect x="40" y="860" width="300" height="100" rx="0" fill="#fff7ed" stroke="#c2410c" stroke-width="2"/><text x="190" y="905" text-anchor="middle" fill="#0f172a" font-size="15" font-weight="600"><tspan x="190" dy="0">Admin / secretary reports</tspan><tspan x="190" dy="20">Revenue and decision analytics</tspan></text></g></svg>